<?xml version="1.0" encoding="utf-8"?>
<!-- Generator: Adobe Illustrator 20.1.0, SVG Export Plug-In . SVG Version: 6.00 Build 0)  -->
<svg version="1.1" id="Layer_1" xmlns="http://www.w3.org/2000/svg" xmlns:xlink="http://www.w3.org/1999/xlink" x="0px" y="0px"
	 viewBox="0 0 50 50" style="enable-background:new 0 0 50 50;" xml:space="preserve">
<g>
	<g>
		<path d="M26.8,50.1c-8.1,0-16.3,0-24.4,0C2.2,50,2.1,50,2,49.9c-0.6-0.2-1.1-0.6-1.5-1.2c-0.2-0.3-0.3-0.6-0.4-0.9
			c0-15.2,0-30.4,0-45.5C0.3,2,0.4,1.6,0.6,1.3C1,0.6,1.7,0.3,2.4,0.1c15.1,0,30.3,0,45.4,0c0.4,0.2,0.7,0.3,1.1,0.5
			c0.7,0.4,0.9,1.1,1.2,1.8c0,15.1,0,30.2,0,45.4c-0.2,0.4-0.3,0.8-0.6,1.2c-0.4,0.6-1.1,0.9-1.8,1.1c-4.4,0-8.8,0-13.2,0
			c0-6.4,0-12.9,0-19.3c0.2,0,0.4,0,0.5,0c1.8,0,3.7,0,5.5,0c0.3,0,0.4-0.1,0.5-0.4c0.2-2,0.5-4,0.8-6c0-0.4,0.1-0.7,0.1-1.2
			c-0.2,0-0.4,0-0.5,0c-2.1,0-4.2,0-6.3,0c-0.7,0-0.6,0.1-0.6-0.6c0-1.1,0-2.3,0-3.4c0-0.7,0-1.3,0.1-2c0.1-1.3,0.8-2.1,2.1-2.3
			c0.6-0.1,1.2-0.2,1.8-0.2c1.1,0,2.2,0,3.4,0c0.2,0,0.4,0,0.4-0.3c0-2,0-4.1,0-6.1c0-0.1-0.2-0.3-0.3-0.3c-2.5-0.2-4.9-0.5-7.4-0.2
			C33,8,31.5,8.5,30.2,9.6c-2.2,1.8-3.2,4.2-3.3,6.9c-0.1,2.1-0.1,4.2-0.1,6.2c0,0.3-0.1,0.5-0.4,0.5c-1.9,0-3.7,0-5.6,0
			c-0.2,0-0.3,0-0.5,0c0,2.6,0,5,0,7.6c2.2,0,4.3,0,6.5,0c0,0.2,0,0.3,0,0.5c0,6.1,0,12.3,0,18.4C26.8,49.8,26.8,49.9,26.8,50.1z"/>
	</g>
</g>
</svg>
